<mxfile host="65bd71144e">
    <diagram id="LdJXHW6JYpVQuPHWPK6x" name="Page-1">
        <mxGraphModel dx="27" dy="403" grid="1" gridSize="10" guides="1" tooltips="1" connect="1" arrows="1" fold="1" page="1" pageScale="1" pageWidth="827" pageHeight="1169" background="#ffffff" math="0" shadow="0">
            <root>
                <mxCell id="0"/>
                <mxCell id="1" parent="0"/>
                <mxCell id="2" value="" style="rounded=0;whiteSpace=wrap;html=1;fillColor=#FFFFFF;strokeColor=#000000;" vertex="1" parent="1">
                    <mxGeometry x="120" y="150" width="470" height="380" as="geometry"/>
                </mxCell>
                <mxCell id="5" value="" style="shape=image;verticalLabelPosition=bottom;labelBackgroundColor=#ffffff;verticalAlign=top;aspect=fixed;imageAspect=0;image=https://file+.vscode-resource.vscode-webview.net/Users/auma/%EC%A0%95%EB%A6%AC%EC%9E%90%EB%A3%8C/%EC%84%9C%EB%B2%84%EA%B5%AC%EC%84%B1%EB%8F%84/asset/amazon_eks_logo_icon_170592.png?version%3D1650488441197;" vertex="1" parent="1">
                    <mxGeometry x="120" y="150" width="120" height="60" as="geometry"/>
                </mxCell>
                <mxCell id="6" value="" style="rounded=1;whiteSpace=wrap;html=1;fillColor=#FFFFFF;strokeColor=#000000;" vertex="1" parent="1">
                    <mxGeometry x="150" y="210" width="390" height="300" as="geometry"/>
                </mxCell>
            </root>
        </mxGraphModel>
    </diagram>
</mxfile>